<?xml version="1.0" standalone="no"?>
<!DOCTYPE svg PUBLIC "-//W3C//DTD SVG 20010904//EN"
 "http://www.w3.org/TR/2001/REC-SVG-20010904/DTD/svg10.dtd">
<svg version="1.0" xmlns="http://www.w3.org/2000/svg"
 width="400.000000pt" height="400.000000pt" viewBox="0 0 400.000000 400.000000"
 preserveAspectRatio="xMidYMid meet">
<metadata>
Created by potrace 1.11, written by Peter Selinger 2001-2013
</metadata>
<g transform="translate(0.000000,400.000000) scale(0.100000,-0.100000)"
fill="#000000" stroke="none">
<path d="M1250 2508 c0 -881 -4 -985 -41 -1083 -42 -113 -157 -217 -272 -247
-74 -19 -229 -16 -302 6 -157 46 -257 174 -272 349 l-6 67 -160 0 -160 0 6
-87 c19 -291 202 -508 493 -583 103 -27 302 -37 414 -21 343 51 562 268 609
605 7 51 11 382 11 962 l0 884 -160 0 -160 0 0 -852z"/>
<path d="M2110 2145 l0 -1215 160 0 160 0 0 411 0 411 148 152 c135 141 148
152 163 137 9 -9 204 -262 433 -563 l417 -548 190 0 c150 0 189 3 183 13 -4 6
-235 310 -512 675 -277 365 -502 668 -499 675 3 7 215 247 471 534 256 288
466 525 466 528 0 3 -85 5 -189 5 l-190 0 -533 -594 c-293 -327 -536 -595
-540 -595 -5 -1 -8 267 -8 594 l0 595 -160 0 -160 0 0 -1215z"/>
<path d="M0 465 l0 -155 2000 0 2000 0 0 155 0 155 -2000 0 -2000 0 0 -155z"/>
</g>
</svg>
